# xmcd
#
# Track frame offsets:
#	150
#	14191
#	38725
#	53934
#	65781
#	93738
#	113480
#	129478
#	141048
#	154668
#
# Disc length: 2540 seconds
#
# Revision: 0
# Processed by: cddbd v1.5.2PL0 Copyright (c) Steve Scherf et al.
# Submitted via: dBpowerAMP V4.0
#
DISCID=8c09ea0a
DTITLE=Julie Driscoll, Brian Auger and The Trinity - Open
DYEAR=1900
DGENRE=
TTITLE0=01 In And Out
TTITLE1=02 Isola Natale
TTITLE2=03 Black Cat
TTITLE3=04 Lament For Miss Baker
TTITLE4=05 Goodbye Jungle Telegraph
TTITLE5=06 Tramp
TTITLE6=07 Why (Am I Treated So Bad)
TTITLE7=08 A Kind Of Love In
TTITLE8=09 Break It Up
TTITLE9=10 Season Of The Witch
EXTD=
EXTT0=
EXTT1=
EXTT2=
EXTT3=
EXTT4=
EXTT5=
EXTT6=
EXTT7=
EXTT8=
EXTT9=
PLAYORDER=
